    <svg class="sprite" xmlns="http://www.w3.org/2000/svg" aria-hidden="true">
      <symbol id="icon-wa" viewBox="0 0 24 24">
        <path
          fill="currentColor"
          d="M12.04 2C6.58 2 2.15 6.4 2.15 11.83c0 1.74.46 3.44 1.34 4.94L2 22l5.39-1.4a10 10 0 0 0 4.65 1.18h.01c5.46 0 9.89-4.4 9.89-9.83C21.94 6.4 17.5 2 12.04 2zm5.76 14.15c-.24.68-1.4 1.3-1.94 1.38-.5.08-1.12.11-1.81-.11-.41-.14-.95-.31-1.64-.61-2.88-1.25-4.76-4.15-4.9-4.34-.14-.2-1.16-1.54-1.16-2.94s.73-2.08 1-2.37c.24-.28.64-.41.86-.41.1 0 .2 0 .29.01.26.01.38.03.55.42.21.5.71 1.74.77 1.87.06.12.1.27.02.43-.08.17-.12.27-.24.41-.12.14-.25.32-.36.43-.12.12-.24.25-.1.48.14.24.62 1.02 1.33 1.65.91.81 1.68 1.07 1.92 1.19.24.12.38.1.52-.06.14-.16.6-.7.76-.94.16-.24.32-.2.54-.12.22.08 1.4.66 1.64.78.24.12.4.18.46.28.06.1.06.58-.18 1.26z"
        />
      </symbol>
      <symbol id="icon-sun" viewBox="0 0 24 24">
        <g fill="none" stroke="currentColor" stroke-width="1.6" stroke-linecap="round">
          <circle cx="12" cy="12" r="4.2" />
          <g class="rays"><path d="M12 2.5v2.2M12 19.3v2.2M2.5 12h2.2M19.3 12h2.2M5.3 5.3l1.6 1.6M17.1 17.1l1.6 1.6M5.3 18.7l1.6-1.6M17.1 6.9l1.6-1.6" /></g>
        </g>
      </symbol>
      <symbol id="icon-road" viewBox="0 0 24 24">
        <g fill="none" stroke="currentColor" stroke-width="1.6" stroke-linecap="round" stroke-linejoin="round">
          <path d="M3 15.5V8.8A1.8 1.8 0 0 1 4.8 7H15l3.4 3.6 1.9.9a1.2 1.2 0 0 1 .7 1.1v2.9a1 1 0 0 1-1 1h-1.2" />
          <path d="M9.4 16.5h5.2M3 16.5h1.4" /><circle cx="7" cy="16.8" r="1.8" /><circle cx="16.6" cy="16.8" r="1.8" />
          <path d="M11.6 9l-1.4 2.3h2l-1.4 2.3" />
        </g>
      </symbol>
      <symbol id="icon-plug" viewBox="0 0 24 24">
        <g fill="none" stroke="currentColor" stroke-width="1.6" stroke-linecap="round" stroke-linejoin="round">
          <path d="M9 3v4.5M15 3v4.5M6.5 7.5h11v3.2a5.5 5.5 0 0 1-11 0z" /><path d="M12 16.2V21" />
        </g>
      </symbol>
      <symbol id="icon-battery" viewBox="0 0 24 24">
        <g fill="none" stroke="currentColor" stroke-width="1.6" stroke-linecap="round" stroke-linejoin="round">
          <rect x="3" y="7" width="16" height="10" rx="2" /><path d="M21 10.5v3" />
          <path class="charge" d="M6.5 12h9" stroke-width="4" />
        </g>
      </symbol>
      <symbol id="icon-drop" viewBox="0 0 24 24">
        <g fill="none" stroke="currentColor" stroke-width="1.6" stroke-linecap="round" stroke-linejoin="round">
          <path d="M12 3.2s-6 6.6-6 10.6a6 6 0 0 0 12 0c0-4-6-10.6-6-10.6z" /><path d="M9.3 14.4a2.8 2.8 0 0 0 2.4 2.6" />
        </g>
      </symbol>
      <symbol id="icon-flame" viewBox="0 0 24 24">
        <g fill="none" stroke="currentColor" stroke-width="1.6" stroke-linecap="round" stroke-linejoin="round">
          <path d="M12 21a6 6 0 0 0 6-6c0-3.6-2.4-5.8-3.6-8.6-.4 2-1.4 3.2-2.6 3.8C11.8 7.6 10.6 5 8.6 3.4 8.8 7 6 9.6 6 15a6 6 0 0 0 6 6z" />
          <path d="M12 21a2.6 2.6 0 0 1-2.6-2.6c0-1.6 1.4-2.4 2-3.8.8 1.2 3.2 2 3.2 3.8A2.6 2.6 0 0 1 12 21z" />
        </g>
      </symbol>
      <symbol id="icon-shower" viewBox="0 0 24 24">
        <g fill="none" stroke="currentColor" stroke-width="1.6" stroke-linecap="round" stroke-linejoin="round">
          <path d="M5 21V7a4 4 0 0 1 4-4h0a4 4 0 0 1 4 4v1" /><path d="M9.5 8.5h7a0 0 0 0 1 0 0 3.5 3.5 0 0 1-7 0z" />
          <path d="M11 15v1.4M13 15.6v1.4M15 15v1.4M12 18.6v1.4M14 19.2v1.4" />
        </g>
      </symbol>
      <symbol id="icon-fridge" viewBox="0 0 24 24">
        <g fill="none" stroke="currentColor" stroke-width="1.6" stroke-linecap="round" stroke-linejoin="round">
          <rect x="6" y="2.8" width="12" height="18.4" rx="2" /><path d="M6 9.5h12M9 5.6v1.8M9 12.2v3" />
        </g>
      </symbol>
      <symbol id="icon-bolt" viewBox="0 0 24 24">
        <g fill="none" stroke="currentColor" stroke-width="1.6" stroke-linecap="round" stroke-linejoin="round">
          <path d="M13.2 2.8 5.6 13.4h5.6l-1.2 7.8 7.6-10.6h-5.6z" />
        </g>
      </symbol>
      <symbol id="icon-bed" viewBox="0 0 24 24">
        <g fill="none" stroke="currentColor" stroke-width="1.6" stroke-linecap="round" stroke-linejoin="round">
          <path d="M3 18.5V6.5M3 14h18v4.5M21 14v-2.2A2.8 2.8 0 0 0 18.2 9H11v5" /><circle cx="7" cy="11" r="1.8" />
        </g>
      </symbol>
      <symbol id="icon-pump" viewBox="0 0 24 24">
        <g fill="none" stroke="currentColor" stroke-width="1.6" stroke-linecap="round" stroke-linejoin="round">
          <circle cx="10" cy="13" r="5.5" /><path d="M10 10.2v5.6M7.2 13h5.6" /><path d="M15.5 13H21M3 13h1.5M10 7.5V4h5" />
        </g>
      </symbol>
      <symbol id="icon-tank" viewBox="0 0 24 24">
        <g fill="none" stroke="currentColor" stroke-width="1.6" stroke-linecap="round" stroke-linejoin="round">
          <rect x="3.5" y="6" width="17" height="13" rx="2.5" /><path d="M10 6V3.5h4V6" /><path class="level" d="M3.5 12.5c2 1.2 4 1.2 6 0s4-1.2 6 0 3.5 1.2 5 .4" />
        </g>
      </symbol>
      <symbol id="icon-panel" viewBox="0 0 24 24">
        <g fill="none" stroke="currentColor" stroke-width="1.6" stroke-linecap="round" stroke-linejoin="round">
          <path d="M5 5h14l2 10H3z" /><path d="M4 10h16M9.7 5l-.7 10M14.3 5l.7 10M12 15v4M8 19h8" />
        </g>
      </symbol>
      <symbol id="icon-fan" viewBox="0 0 24 24">
        <g fill="none" stroke="currentColor" stroke-width="1.6" stroke-linecap="round" stroke-linejoin="round">
          <path d="M3 8h11a3 3 0 1 0-3-3M3 12h15a3 3 0 1 1-3 3M3 16h7" />
        </g>
      </symbol>
      <symbol id="icon-layers" viewBox="0 0 24 24">
        <g fill="none" stroke="currentColor" stroke-width="1.6" stroke-linecap="round" stroke-linejoin="round">
          <path d="M12 3.5 21 8l-9 4.5L3 8z" /><path d="m3 12 9 4.5 9-4.5" /><path d="m3 16 9 4.5 9-4.5" />
        </g>
      </symbol>
      <symbol id="icon-doc" viewBox="0 0 24 24">
        <g fill="none" stroke="currentColor" stroke-width="1.6" stroke-linecap="round" stroke-linejoin="round">
          <path d="M6 3h8l4 4v14H6z" /><path d="M14 3v4h4M9 12h6M9 16h4" />
        </g>
      </symbol>
      <symbol id="icon-moon" viewBox="0 0 24 24">
        <g fill="none" stroke="currentColor" stroke-width="1.6" stroke-linecap="round" stroke-linejoin="round">
          <path d="M19.5 14.6A7.8 7.8 0 0 1 9.4 4.5a7.8 7.8 0 1 0 10.1 10.1z" />
        </g>
      </symbol>
      <symbol id="icon-book" viewBox="0 0 24 24">
        <g fill="none" stroke="currentColor" stroke-width="1.6" stroke-linecap="round" stroke-linejoin="round">
          <path d="M4 5.5A1.5 1.5 0 0 1 5.5 4H11v16H5.5A1.5 1.5 0 0 1 4 18.5z" /><path d="M20 5.5A1.5 1.5 0 0 0 18.5 4H13v16h5.5a1.5 1.5 0 0 0 1.5-1.5z" /><path d="M7 8h2M15 8h2M7 11h2M15 11h2" />
        </g>
      </symbol>
      <symbol id="icon-cup" viewBox="0 0 24 24">
        <g fill="none" stroke="currentColor" stroke-width="1.6" stroke-linecap="round" stroke-linejoin="round">
          <path d="M4.5 9h12v5.5a5 5 0 0 1-5 5h-2a5 5 0 0 1-5-5z" /><path d="M16.5 10.5h1.2a2.3 2.3 0 0 1 0 4.6h-1.5" /><path d="M8.5 3.5c-.6.8.6 1.6 0 2.5M12.5 3.5c-.6.8.6 1.6 0 2.5" />
        </g>
      </symbol>
      <symbol id="icon-mountain" viewBox="0 0 24 24">
        <g fill="none" stroke="currentColor" stroke-width="1.6" stroke-linecap="round" stroke-linejoin="round">
          <path d="M2.5 19.5 9 8.5l4 6.5 2.5-3.5 6 8z" /><circle cx="17.5" cy="6" r="2" />
        </g>
      </symbol>
      <symbol id="icon-grid" viewBox="0 0 24 24">
        <g fill="none" stroke="currentColor" stroke-width="1.6" stroke-linecap="round" stroke-linejoin="round">
          <rect x="3.5" y="3.5" width="7" height="7" rx="1.5" /><rect x="13.5" y="3.5" width="7" height="7" rx="1.5" /><rect x="3.5" y="13.5" width="7" height="7" rx="1.5" /><rect x="13.5" y="13.5" width="7" height="7" rx="1.5" />
        </g>
      </symbol>
      <symbol id="icon-list" viewBox="0 0 24 24">
        <g fill="none" stroke="currentColor" stroke-width="1.6" stroke-linecap="round" stroke-linejoin="round">
          <path d="M9 6h11M9 12h11M9 18h11" /><circle cx="4.5" cy="6" r="1" /><circle cx="4.5" cy="12" r="1" /><circle cx="4.5" cy="18" r="1" />
        </g>
      </symbol>
      <symbol id="icon-camera" viewBox="0 0 24 24">
        <g fill="none" stroke="currentColor" stroke-width="1.6" stroke-linecap="round" stroke-linejoin="round">
          <path d="M3.5 8.5A1.5 1.5 0 0 1 5 7h2.5L9 4.8h6L16.5 7H19a1.5 1.5 0 0 1 1.5 1.5v9A1.5 1.5 0 0 1 19 19H5a1.5 1.5 0 0 1-1.5-1.5z" /><circle cx="12" cy="12.8" r="3.4" />
        </g>
      </symbol>
      <symbol id="icon-close" viewBox="0 0 24 24">
        <path d="M6 6l12 12M18 6 6 18" fill="none" stroke="currentColor" stroke-width="1.8" stroke-linecap="round" />
      </symbol>
      <symbol id="icon-prev" viewBox="0 0 24 24">
        <path d="M15 5l-7 7 7 7" fill="none" stroke="currentColor" stroke-width="1.8" stroke-linecap="round" stroke-linejoin="round" />
      </symbol>
      <symbol id="icon-next" viewBox="0 0 24 24">
        <path d="M9 5l7 7-7 7" fill="none" stroke="currentColor" stroke-width="1.8" stroke-linecap="round" stroke-linejoin="round" />
      </symbol>
    </svg>
